<svg xmlns="http://www.w3.org/2000/svg" viewBox="0 0 64 64">
  <defs>
    <linearGradient id="g" x1="0" y1="0" x2="1" y2="1">
      <stop offset="0%" stop-color="#7c3aed"/>
      <stop offset="100%" stop-color="#e879f9"/>
    </linearGradient>
  </defs>
  <rect width="64" height="64" rx="14" fill="url(#g)"/>
  <path d="M18 24 h22 a4 4 0 0 1 4 4 v8 a10 10 0 0 1 -10 10 h-10 a10 10 0 0 1 -10 -10 v-8 a4 4 0 0 1 4 -4 z" fill="#fff"/>
  <path d="M44 28 h3 a5 5 0 0 1 5 5 v0 a5 5 0 0 1 -5 5 h-3" fill="none" stroke="#fff" stroke-width="3" stroke-linecap="round"/>
  <path d="M22 14 q0 3 2 5 q2 2 2 5" fill="none" stroke="#fff" stroke-width="2.5" stroke-linecap="round" opacity="0.85"/>
  <path d="M30 12 q0 3 2 5 q2 2 2 5" fill="none" stroke="#fff" stroke-width="2.5" stroke-linecap="round" opacity="0.85"/>
  <path d="M38 14 q0 3 2 5 q2 2 2 5" fill="none" stroke="#fff" stroke-width="2.5" stroke-linecap="round" opacity="0.85"/>
</svg>
